<?xml version="1.0" standalone="no"?>
<!DOCTYPE svg PUBLIC "-//W3C//DTD SVG 20010904//EN"
 "http://www.w3.org/TR/2001/REC-SVG-20010904/DTD/svg10.dtd">
<svg version="1.0" xmlns="http://www.w3.org/2000/svg"
 width="70.000000pt" height="70.000000pt" viewBox="0 0 70.000000 70.000000"
 preserveAspectRatio="xMidYMid meet">
<metadata>
Created by potrace 1.14, written by Peter Selinger 2001-2017
</metadata>
<g transform="translate(0.000000,70.000000) scale(0.100000,-0.100000)"
fill="#000000" stroke="none">
<path d="M325 561 c-16 -4 -40 -13 -52 -20 -19 -10 -23 -9 -23 4 0 23 -67 21
-74 -2 -8 -29 -6 -378 3 -392 5 -7 21 -11 37 -9 l29 3 5 141 c4 101 9 146 19
160 24 31 56 59 71 62 27 6 80 -9 89 -26 15 -27 24 -120 23 -215 -2 -98 7
-127 39 -124 34 2 41 41 37 203 -3 135 -5 154 -23 174 -35 38 -117 57 -180 41z"/>
</g>
</svg>
